<?xml version="1.0" encoding="utf-8"?>
<!-- Generator: Adobe Illustrator 16.0.0, SVG Export Plug-In . SVG Version: 6.00 Build 0)  -->
<!DOCTYPE svg PUBLIC "-//W3C//DTD SVG 1.1//EN" "http://www.w3.org/Graphics/SVG/1.1/DTD/svg11.dtd">
<svg version="1.1" id="OBJECTS" xmlns="http://www.w3.org/2000/svg" xmlns:xlink="http://www.w3.org/1999/xlink" x="0px" y="0px"
	 width="141.732px" height="141.73px" viewBox="0 0 141.732 141.73" enable-background="new 0 0 141.732 141.73"
	 xml:space="preserve">
<g>
	<rect x="0" y="0" fill="#1D1D1B" width="141.732" height="141.732"/>
	<g>
		<path fill="#FFFFFF" d="M92.339,33.281H49.393c-8.326,0-15.078,6.751-15.078,15.079v22.508v22.506
			c0,8.328,6.751,15.08,15.078,15.08h42.947c8.326,0,15.077-6.751,15.077-15.08V70.867V48.36
			C107.418,40.031,100.667,33.281,92.339,33.281z M99.669,91.336c0,5.172-4.192,9.365-9.364,9.365H51.427
			c-5.171,0-9.361-4.193-9.361-9.363V70.867V50.395c0-5.171,4.19-9.365,9.361-9.365h38.877c5.172,0,9.364,4.193,9.364,9.365v20.473
			V91.336z"/>
		<path fill="#FFFFFF" d="M70.866,48.522c-12.319,0-22.345,10.024-22.345,22.346c0,12.318,10.024,22.344,22.345,22.344
			c12.321,0,22.346-10.025,22.346-22.344C93.212,58.546,83.187,48.522,70.866,48.522z M70.866,85.46
			c-8.046,0-14.594-6.547-14.594-14.595c0-8.047,6.547-14.595,14.594-14.595c8.048,0,14.596,6.547,14.596,14.595
			C85.461,78.913,78.914,85.46,70.866,85.46z"/>
		<path fill="#FFFFFF" d="M89.674,54.056h0.519c1.689,0,3.062-1.371,3.062-3.062v-0.518c0-1.69-1.371-3.062-3.062-3.062h-0.519
			c-1.689,0-3.062,1.371-3.062,3.062v0.518C86.613,52.686,87.984,54.056,89.674,54.056z"/>
	</g>
</g>
</svg>
