<?xml version="1.0" encoding="utf-8"?>
<!-- Generator: Adobe Illustrator 16.0.0, SVG Export Plug-In . SVG Version: 6.00 Build 0)  -->
<!DOCTYPE svg PUBLIC "-//W3C//DTD SVG 1.1//EN" "http://www.w3.org/Graphics/SVG/1.1/DTD/svg11.dtd">
<svg version="1.1" id="OBJECTS" xmlns="http://www.w3.org/2000/svg" xmlns:xlink="http://www.w3.org/1999/xlink" x="0px" y="0px"
	 width="141.732px" height="141.73px" viewBox="0 0 141.732 141.73" enable-background="new 0 0 141.732 141.73"
	 xml:space="preserve">
<rect x="0" y="0" fill="#1D1D1B" width="141.732" height="141.732"/>
<g>
	<g>
		<path fill="#FFFFFF" d="M123.238,80.63L93.307,50.711l-9.044,9.043l24.102,24.101l-0.08,0.08H74.03
			c-2.992,0-3.867-1.264-4.323-1.456c-2.143-2.139-10.056-10.684-12.843-13.491c-4.173-4.202-6.445-4.396-7.998-4.352H29.797v-6.839
			h20.824c4.182,0,6.978,2.904,7.316,3.274c0.146,0.185,0.215,0.247,0.395,0.425l11.861,11.7l8.98-9.104L67.479,52.555
			c-1.397-1.559-7.38-7.546-16.857-7.546H17.008v32.418h27.313c0.289,0,0.213,0.024,0.396-0.003c0.25,0.021,2.208-0.015,3.071,0.899
			c3.104,3.293,14.089,14.414,14.198,14.523c0.056,0.055,1.844,1.842,1.901,1.896c0.938,0.871,2.41,1.983,7.433,1.983h39.622
			c1.701,0,3.333-0.679,4.533-1.885l6.886-6.938C124.849,85.404,125.731,83.123,123.238,80.63z"/>
	</g>
	<g>
		<path fill="#FFFFFF" d="M100.318,45.149c0.628,0,1.239,0.161,1.837,0.483s1.063,0.782,1.396,1.381
			c0.334,0.599,0.5,1.224,0.5,1.875c0,0.644-0.163,1.263-0.491,1.857c-0.328,0.594-0.789,1.056-1.382,1.384
			c-0.593,0.329-1.213,0.493-1.859,0.493s-1.268-0.164-1.859-0.493c-0.592-0.328-1.054-0.79-1.384-1.384
			c-0.33-0.595-0.495-1.214-0.495-1.857c0-0.65,0.167-1.275,0.503-1.875c0.335-0.599,0.801-1.06,1.398-1.381
			C99.078,45.311,99.691,45.149,100.318,45.149z M100.318,45.769c-0.524,0-1.035,0.134-1.532,0.403s-0.886,0.654-1.166,1.154
			c-0.281,0.5-0.421,1.021-0.421,1.563c0,0.538,0.138,1.054,0.413,1.547s0.661,0.878,1.156,1.154
			c0.495,0.274,1.012,0.414,1.55,0.414s1.055-0.138,1.55-0.414c0.496-0.276,0.88-0.66,1.154-1.154
			c0.272-0.494,0.411-1.009,0.411-1.547c0-0.542-0.141-1.063-0.419-1.563c-0.279-0.5-0.668-0.885-1.166-1.154
			S100.839,45.769,100.318,45.769z M98.679,50.953v-4.021h1.382c0.472,0,0.813,0.037,1.023,0.111
			c0.212,0.074,0.38,0.204,0.505,0.389c0.126,0.186,0.188,0.381,0.188,0.589c0,0.294-0.104,0.55-0.314,0.769
			c-0.21,0.218-0.486,0.34-0.834,0.365c0.143,0.061,0.257,0.132,0.343,0.214c0.16,0.158,0.358,0.424,0.594,0.797l0.49,0.788h-0.792
			l-0.357-0.635c-0.28-0.499-0.506-0.811-0.678-0.936c-0.119-0.092-0.292-0.139-0.521-0.139h-0.382v1.708L98.679,50.953
			L98.679,50.953z M99.328,48.69h0.787c0.377,0,0.633-0.056,0.771-0.168c0.137-0.111,0.204-0.261,0.204-0.444
			c0-0.119-0.032-0.227-0.099-0.319c-0.066-0.094-0.158-0.165-0.274-0.21c-0.117-0.046-0.335-0.069-0.651-0.069h-0.737L99.328,48.69
			L99.328,48.69z"/>
	</g>
</g>
</svg>
