<?xml version="1.0" encoding="utf-8"?>
<!-- Generator: Adobe Illustrator 16.0.0, SVG Export Plug-In . SVG Version: 6.00 Build 0)  -->
<!DOCTYPE svg PUBLIC "-//W3C//DTD SVG 1.1//EN" "http://www.w3.org/Graphics/SVG/1.1/DTD/svg11.dtd">
<svg version="1.1" id="Ebene_1" xmlns="http://www.w3.org/2000/svg" xmlns:xlink="http://www.w3.org/1999/xlink" x="0px" y="0px"
	 width="1280px" height="2272px" viewBox="496 -496 1280 2272" enable-background="new 496 -496 1280 2272" xml:space="preserve">
<g>
	<rect x="496" y="848.001" width="32" height="128"/>
	<rect x="528" y="816.002" width="31.999" height="32"/>
	<polygon points="815.999,912.002 848,912.002 848,880.002 720,880.002 720,912.002 752,912.002 752,944.002 815.999,944.002 	"/>
	<polygon points="815.999,976.001 752.001,976.001 752.001,1008.001 784,1008.001 816,1008.001 816,976.001 848,976.001 
		848,1008.001 880.002,1008.001 880.002,976.001 880,976.001 880,944.002 815.999,944.002 	"/>
	<polygon points="656,784.002 592,784.002 592,688.002 560,688.002 560,816.002 592,816.002 592,848.002 656,848.002 	"/>
	<rect x="1008" y="816.002" width="32" height="32"/>
	<polygon points="1167.999,976.001 1136,976.001 1136,1008.001 1168,1008.001 1168,976.001 1200,976.001 1200,1008.001 
		1168,1008.001 1168,1264.001 1232,1264.001 1232,1136.001 1200,1136.001 1200,1104.001 1232,1104.001 1232,976.001 
		1231.998,976.001 1231.998,944.002 1167.999,944.002 	"/>
	<polygon points="1712,752.002 1712,720.002 1679.998,720.002 1679.998,688.002 1615.998,688.002 1615.998,720.002 
		1583.998,720.002 1583.998,752.002 1711.998,752.002 1711.998,784.002 1583.998,784.002 1583.998,752.002 1551.998,752.002 
		1551.998,688.002 1519.998,688.002 1519.998,720.002 1487.998,720.002 1487.998,752.002 1519.998,752.002 1519.998,784.002 
		1551.998,784.002 1551.998,848.002 1615.997,848.002 1615.997,816.002 1679.997,816.002 1679.997,848.002 1615.998,848.002 
		1615.998,880.002 1583.998,880.002 1583.998,912.002 1711.998,912.002 1711.998,944.001 1583.998,944.001 1583.998,912.002 
		1551.998,912.002 1551.998,848.002 1519.998,848.002 1519.998,880.001 1487.998,880.001 1487.998,912.002 1519.998,912.002 
		1519.998,944.001 1551.998,944.001 1551.998,976.001 1520,976.001 1520,1008.001 1584,1008.001 1584,976.001 1616,976.001 
		1616,1008.001 1584,1008.001 1584,1072.001 1552,1072.001 1552,1104.001 1424,1104.001 1424,1072.001 1392,1072.001 1392,1008.001 
		1360,1008.001 1360,976.001 1359.999,976.001 1359.999,944.002 1391.998,944.002 1391.998,816.002 1359.999,816.002 
		1359.999,848.002 1327.999,848.002 1327.999,880.002 1295.999,880.002 1295.999,912.002 1263.999,912.002 1263.999,848.002 
		1231.998,848.002 1231.998,880.002 1199.999,880.002 1199.999,912.002 1231.998,912.002 1231.998,944.002 1263.999,944.002 
		1263.999,976.001 1264,976.001 1264,1104.001 1296,1104.001 1296,1008.001 1360,1008.001 1360,1040.001 1328,1040.001 
		1328,1072.001 1360,1072.001 1360,1104.001 1392,1104.001 1392,1168.001 1456,1168.001 1456,1136.001 1520,1136.001 1520,1168.001 
		1584,1168.001 1584,1104.001 1616,1104.001 1616,1072.001 1648,1072.001 1648,1040.001 1616,1040.001 1616,1008.001 1680,1008.001 
		1680,1104.001 1712,1104.001 1712,976.001 1743.998,976.001 1743.998,944.001 1775.998,944.001 1775.998,848.002 1743.998,848.002 
		1743.998,912.002 1711.999,912.002 1711.999,880.002 1679.998,880.002 1679.998,848.002 1743.998,848.002 1743.998,784.002 
		1775.998,784.002 1775.998,688.002 1743.998,688.002 1743.998,752.002 	"/>
	<rect x="528" y="624.001" width="32" height="64.001"/>
	<rect x="496" y="688.002" width="32" height="128"/>
	<polygon points="1423.999,656.002 1423.999,784.002 1455.998,784.002 1455.998,688.002 1519.998,688.002 1519.998,624.001 
		1455.998,624.001 1455.998,656.002 	"/>
	<rect x="1391.998" y="784.002" width="32.001" height="32"/>
	<polygon points="848,752.002 848,720.002 720,720.002 720,752.002 752,752.002 752,784.002 815.999,784.002 815.999,752.002 	"/>
	<polygon points="944,752.002 944,720.002 912,720.002 912,688.002 880,688.002 880,624.001 815.999,624.001 815.999,656.002 
		784,656.002 784,624.001 720,624.001 720,592.001 688,592.001 688,528.001 656,528.001 656,560.001 624,560.001 624,592.001 
		656,592.001 656,624.001 688,624.001 688,688.002 656,688.002 656,720.002 624,720.002 624,752.002 656,752.002 656,784.002 
		688,784.002 688,720.002 720,720.002 720,688.002 848,688.002 848,720.002 880,720.002 880,784.002 912,784.002 912,752.002 	"/>
	<rect x="592" y="624.001" width="64" height="64.001"/>
	<polygon points="848,592.001 848,560.001 784,560.001 784,528.001 752,528.001 752,560.001 720,560.001 720,592.001 784,592.001 
		784,624.001 815.999,624.001 815.999,592.001 	"/>
	<polygon points="1008,656.002 1008,528.001 976,528.001 976,624.001 912,624.001 912,688.002 976,688.002 976,656.002 	"/>
	<rect x="1008" y="656.002" width="32" height="32"/>
	<polygon points="1136,656.002 1167.998,656.002 1167.998,624.001 1199.999,624.001 1199.999,592.001 1231.998,592.001 
		1231.998,560.001 1199.999,560.001 1199.999,528.001 1167.998,528.001 1167.998,592.001 1136,592.001 1136,624.001 1072,624.001 
		1072,592.001 1136,592.001 1136,560.001 1103.998,560.001 1103.998,528.001 1040,528.001 1040,656.002 1103.998,656.002 
		1103.998,688.002 1136,688.002 	"/>
	<rect x="528" y="464.001" width="32" height="32"/>
	<rect x="496" y="496.001" width="32" height="128"/>
	<rect x="1679.998" y="624.001" width="64" height="64.001"/>
	<polygon points="1487.999,560.001 1487.999,592.001 1519.998,592.001 1519.998,624.001 1551.999,624.001 1551.999,688.002 
		1615.998,688.002 1615.998,656.002 1647.998,656.002 1647.998,624.001 1583.998,624.001 1583.998,592.001 1551.999,592.001 
		1551.999,560.001 1551.999,528.001 1519.998,528.001 1519.998,560.001 	"/>
	<rect x="1551.999" y="464.001" width="63.998" height="64"/>
	<rect x="1391.998" y="624.001" width="32.001" height="32.001"/>
	<path d="M1423.999,624.001h31.999v-96h64v-64h32v-64h32v32h32v32h64v-32H1712v-32h31.998v64H1712h-32.002v32h-32v32h-32v32h-32v32
		h64v32h32v-32H1712v-32h32v64h32v-96h-32v-64h31.998v-95.998h-32v-64.002H1776v-96h-32.002v-32h-96v32H1712v32h31.998v64h-64v-32
		H1712v-32h-64.002v-32h-32v32h-32v32h64v32h-64v-32h-32v-64h-32v32H1488v32h31.998v32h32v64.002h-32v31.998H1488v32h31.998v32h-64
		v-95.998H1424L1423.999,624.001z M1647.998,304.001h32v32h-32V304.001z M1583.998,368.003H1712v31.998h-128.002V368.003z"/>
	<polygon points="1455.998,368.003 1519.998,368.003 1519.998,304.001 1456,304.001 1456,208.001 1519.998,208.001 
		1519.998,176.001 1424,176.001 1424,304.001 1455.998,304.001 	"/>
	<polygon points="1199.999,528.001 1264,528.001 1263.999,624.001 1295.999,624.001 1296,496.001 1264,496.001 1264,464.001 
		1199.999,464.001 	"/>
	<rect x="1296" y="464.001" width="32" height="32"/>
	<polygon points="1103.998,496.001 1103.998,528.001 1167.998,528.001 1167.998,464.001 1199.999,464.001 1199.999,432.001 
		1231.998,432.001 1231.998,400.001 1199.999,400.001 1200,368.003 1167.998,368.003 1167.998,432.001 1136,432.001 1136,464.001 
		1072,464.001 1072,496.001 	"/>
	<polygon points="1072,464.001 1072,432.001 1136,432.001 1136,400.001 1103.998,400.001 1103.998,368.003 1072,368.003 
		1072,336.001 1103.998,336.001 1103.998,208.001 1040,208.001 1040,464.001 	"/>
	<rect x="1008" y="464.001" width="32" height="64"/>
	<polygon points="1263.999,656.002 1263.999,688.002 1231.998,688.002 1231.998,720.002 1199.999,720.002 1199.999,752.002 
		1231.998,752.002 1231.998,784.002 1263.999,784.002 1263.999,752.002 1263.999,720.002 1295.999,720.002 1295.999,688.002 
		1359.999,688.002 1359.999,720.002 1295.999,720.002 1295.999,752.002 1327.999,752.002 1327.999,784.002 1391.998,784.002 
		1391.998,656.002 1327.999,656.002 1327.999,624.001 1295.999,624.001 1295.999,656.002 	"/>
	<polygon points="1199.999,656.002 1167.998,656.002 1167.998,688.002 1231.998,688.002 1231.998,656.002 1263.999,656.002 
		1263.999,624.001 1199.999,624.001 	"/>
	<polygon points="1136,368.003 1167.998,368.003 1167.998,336.001 1200,336.001 1200,368.003 1264,368.003 1264,464.001 
		1296,464.001 1296,336.001 1328,336.001 1328,304.001 1264,304.001 1264,336.001 1231.998,336.001 1231.998,304.001 
		1167.998,304.001 1167.998,208.001 1136,208.001 1136,336.001 1103.998,336.001 1103.998,368.003 	"/>
	<polygon points="1360,464.001 1360,496.001 1328,496.001 1327.999,624.001 1391.998,624.001 1391.998,368.003 1360,368.003 
		1360,336.001 1328,336.001 1328,464.001 	"/>
	<rect x="1263.999" y="784.002" width="64" height="64"/>
	<rect x="496" y="176.001" width="32" height="128"/>
	<rect x="528" y="304.001" width="32" height="32"/>
	<rect x="496" y="336.001" width="32" height="128"/>
	<polygon points="592,208.001 656,208.001 656,176.001 560,176.001 560,304.001 592,304.001 	"/>
	<polygon points="624,240.001 624,272.001 656,272.001 656,304.001 688,304.001 688,368.003 752,368.003 752,336.001 784,336.001 
		784,304.001 815.999,304.001 815.999,272.001 848,272.001 848,240.001 880,240.001 880,304.001 912,304.001 912,272.001 
		944,272.001 944,240.001 912,240.001 912,208.001 880,208.001 880,176.001 784,176.001 784,208.001 752,208.001 752,240.001 
		720,240.001 720,272.001 688,272.001 688,208.001 752,208.001 752,176.001 688,176.001 688,208.001 656,208.001 656,240.001 	"/>
	<polygon points="688,528.001 752,528.001 752,496.001 784,496.001 784,528.001 848,528.001 848,560.001 880,560.001 880,624.001 
		912,624.001 912,592.001 944,592.001 944,560.001 912,560.001 912,528.001 880,528.001 880,464.001 912,464.001 912,432.001 
		944,432.001 944,400.001 912,400.001 912,368.003 880,368.003 880,432.001 848,432.001 848,464.001 720,464.001 720,432.001 
		688,432.001 688,368.003 656,368.003 656,400.001 624,400.001 624,432.001 656,432.001 656,464.001 688,464.001 	"/>
	<polygon points="720,400.001 720,432.001 848,432.001 848,400.001 815.999,400.001 815.999,368.003 752,368.003 752,400.001 	"/>
	<polygon points="592,528.001 656,528.001 656,464.001 592,464.001 592,496.001 560,496.001 560,624.001 592,624.001 	"/>
	<rect x="815.999" y="304.001" width="64.001" height="64.002"/>
	<polygon points="592,368.003 656,368.003 656,304.001 592,304.001 592,336.001 560,336.001 560,464.001 592,464.001 592,432.001 	
		"/>
	<rect x="912" y="464.001" width="64" height="64"/>
	<rect x="912" y="176.001" width="64" height="32"/>
	<polygon points="912,304.001 912,368.003 976,368.003 976,464.001 1008,464.001 1008,208.001 976,208.001 976,304.001 	"/>
	<rect x="1008" y="176.001" width="32" height="32"/>
	<rect x="1103.998" y="176.001" width="32" height="32"/>
	<rect x="1167.998" y="176.001" width="64" height="32"/>
	<polygon points="1296,240.001 1296,208.001 1360,208.001 1360,240.001 1296,240.001 1296,272.001 1328,272.001 1328,304.001 
		1391.998,304.001 1391.998,176.001 1264,176.001 1264,208.001 1232,208.001 1232,240.001 1200,240.001 1200,272.001 1232,272.001 
		1232,304.001 1264,304.001 1264,240.001 	"/>
	<rect x="1391.998" y="304.001" width="32.002" height="64.002"/>
	<rect x="1552" y="176.001" width="63.998" height="32"/>
	<rect x="1744" y="976.001" width="32" height="128"/>
	<rect x="1712" y="1104.001" width="31.999" height="32"/>
	<polygon points="1456,1040.001 1424,1040.001 1424,1072.001 1552,1072.001 1552,1040.001 1520,1040.001 1520,1008.001 
		1456,1008.001 	"/>
	<polygon points="1456,976.001 1519.998,976.001 1519.998,944.002 1487.999,944.002 1455.999,944.002 1455.999,976.001 
		1423.999,976.001 1423.999,944.002 1391.998,944.002 1391.998,976.001 1392,976.001 1392,1008.001 1456,1008.001 	"/>
	<polygon points="1616,1168.001 1680,1168.001 1680,1264.001 1712,1264.001 1712,1136.001 1680,1136.001 1680,1104.001 
		1616,1104.001 	"/>
	<rect x="1232" y="1104.001" width="32" height="32"/>
	<polygon points="1104.002,1168.001 1104.002,1264.001 1136,1264.001 1136,1008.001 1104.002,1008.001 1104.002,1104.001 
		1040.002,1104.001 1040.002,1168.001 	"/>
	<polygon points="1104,976.001 1136,976.001 1136,944.002 1103.998,944.002 1103.998,976.001 1072,976.001 1072,944.002 
		1103.998,944.002 1103.998,688.002 1040,688.002 1040,816.002 1072,816.002 1072,848.002 1040,848.002 1040,976.001 
		1040.002,976.001 1040.002,1008.001 1104,1008.001 	"/>
	<polygon points="816.002,1136.001 848,1136.001 848,1008.001 816.002,1008.001 816.002,1104.001 752.001,1104.001 
		752.001,1168.001 816.002,1168.001 	"/>
	<polygon points="1264,1136.001 1264,1264.001 1296,1264.001 1296,1168.001 1360,1168.001 1360,1104.001 1296,1104.001 
		1296,1136.001 	"/>
	<polygon points="560,1200.001 560,1232.001 592.001,1232.001 592.001,1264.001 656.001,1264.001 656.001,1232.001 
		688.001,1232.001 688.001,1200.001 560.001,1200.001 560.001,1168.001 688.001,1168.001 688.001,1200.001 720.001,1200.001 
		720.001,1264.001 752.001,1264.001 752.001,1232.001 784.002,1232.001 784.002,1200.001 752.001,1200.001 752.001,1168.001 
		720.001,1168.001 720.001,1104.001 656.002,1104.001 656.002,1136.001 592.002,1136.001 592.002,1104.001 656.001,1104.001 
		656.001,1072.001 688.001,1072.001 688.001,1040.001 560.001,1040.001 560.001,1008.001 688.001,1008.001 688.001,1040.001 
		720.001,1040.001 720.001,1104.001 752.001,1104.001 752.001,1072.001 784.002,1072.001 784.002,1040.001 752.001,1040.001 
		752.001,1008.001 720.001,1008.001 720.001,976.001 752,976.001 752,944.002 688,944.002 688,976.001 656,976.001 656,944.002 
		688,944.002 688,880.002 720,880.002 720,848.002 848,848.002 848,880.002 880,880.002 880,944.002 912,944.002 912,976.001 
		912,976.001 912,1008.001 880.002,1008.001 880.002,1136.001 912,1136.001 912,1104.001 944,1104.001 944,1072.001 976,1072.001 
		976,1040.001 1008,1040.001 1008,1104.001 1040.002,1104.001 1040.002,1072.001 1072,1072.001 1072,1040.001 1040.002,1040.001 
		1040.002,1008.001 1008,1008.001 1008,976.001 1008,976.001 1008,848.002 976,848.002 976,816.002 1008,816.002 1008,688.002 
		976,688.002 976,784.002 912,784.002 912,848.002 976,848.002 976,944.001 912,944.001 912,912.002 944,912.002 944,880.002 
		912,880.002 912,848.002 880,848.002 880,784.002 815.999,784.002 815.999,816.002 752,816.002 752,784.002 688,784.002 
		688,848.002 656,848.002 656,880.002 624,880.002 624,912.002 656,912.002 656,944.001 592,944.001 592,848.002 560,848.002 
		560,976.001 528.001,976.001 528.001,1008.001 496.001,1008.001 496.001,1104.001 528.001,1104.001 528.001,1040.001 560,1040.001 
		560,1072.001 592.001,1072.001 592.001,1104.001 528.001,1104.001 528.001,1168.001 496.001,1168.001 496.001,1264.001 
		528.001,1264.001 528.001,1200.001 	"/>
	<rect x="1712" y="1264.001" width="32" height="64"/>
	<rect x="1744" y="1136" width="32" height="128.001"/>
	<polygon points="816.002,1328.001 816.002,1296.001 848,1296.001 848,1168.001 816.002,1168.001 816.002,1264.001 
		752.001,1264.001 752.001,1328.001 	"/>
	<rect x="848" y="1136.001" width="32.002" height="32"/>
	<polygon points="1424,1200.001 1424,1232.001 1552,1232.001 1552,1200.001 1520,1200.001 1520,1168.001 1456,1168.001 
		1456,1200.001 	"/>
	<polygon points="1360,1200.001 1328,1200.001 1328,1232.001 1360,1232.001 1360,1264.001 1392,1264.001 1392,1328.001 
		1456,1328.001 1456,1296.001 1488,1296.001 1488,1328.001 1552,1328.001 1552,1360.001 1584,1360.001 1584,1424.001 1616,1424.001 
		1616,1392.001 1648,1392.001 1648,1360.001 1616,1360.001 1616,1328.001 1584,1328.001 1584,1264.001 1616,1264.001 1616,1232.001 
		1648,1232.001 1648,1200.001 1616,1200.001 1616,1168.001 1584,1168.001 1584,1232.001 1552,1232.001 1552,1264.001 1424,1264.001 
		1424,1232.001 1392,1232.001 1392,1168.001 1360,1168.001 	"/>
	<rect x="1616" y="1264.001" width="64" height="64"/>
	<polygon points="1552,1392.001 1552,1360.001 1488,1360.001 1488,1328.001 1456,1328.001 1456,1360.001 1424,1360.001 
		1424,1392.001 1488,1392.001 1488,1424.001 1520,1424.001 1520,1392.001 	"/>
	<polygon points="1296,1264.001 1296,1296.001 1264,1296.001 1264,1424.001 1296,1424.001 1296,1328.001 1360,1328.001 
		1360,1264.001 	"/>
	<rect x="1232" y="1264.001" width="32" height="32"/>
	<polygon points="1168,1296.001 1168,1264.001 1136,1264.001 1136,1296.001 1104.002,1296.001 1104.002,1328.001 1072,1328.001 
		1072,1360.001 1040.002,1360.001 1040.002,1392.001 1072,1392.001 1072,1424.001 1104.002,1424.001 1104.002,1360.001 
		1136,1360.001 1136,1328.001 1200,1328.001 1200,1360.001 1136,1360.001 1136,1392.001 1168,1392.001 1168,1424.001 1232,1424.001 
		1232,1296.001 	"/>
	<rect x="1712" y="1456" width="32" height="32"/>
	<rect x="1744" y="1328.001" width="32" height="127.999"/>
	<rect x="528.001" y="1264.001" width="64" height="64"/>
	<polygon points="720,1392.001 720,1424.001 752.001,1424.001 752.001,1392.001 784,1392.001 784,1360.001 752.001,1360.001 
		752.001,1328.001 720,1328.001 720,1264.001 656.001,1264.001 656.001,1296.001 624.001,1296.001 624.001,1328.001 
		688.001,1328.001 688.001,1360.001 720,1360.001 	"/>
	<rect x="656.001" y="1424" width="63.999" height="64"/>
	<rect x="848" y="1296.001" width="32.002" height="32"/>
	<polygon points="656.001,1520 656.001,1488 592.001,1488 592.001,1520 560,1520 560,1552.001 688.001,1552.001 688.001,1520 	"/>
	<polygon points="816.002,1328.001 816.002,1424.001 752.001,1424.001 752.001,1488 816.002,1488 816.002,1584 848,1584 
		848,1328.001 	"/>
	<polygon points="816.002,1584 752.001,1584 752.001,1648.001 816,1648.001 816,1744.001 752.001,1744.001 752.001,1776.001 
		848,1776.001 848,1648.001 816.002,1648.001 	"/>
	<polygon points="784,1712.001 784,1680.001 752.001,1680.001 752.001,1648.001 720.001,1648.001 720.001,1583.999 
		752.001,1583.999 752.001,1552.001 784,1552.001 784,1520 752.001,1520 752.001,1488 720.001,1488 720.001,1552.001 
		688.001,1552.001 688.001,1583.999 560,1583.999 560,1552.001 528.001,1552.001 528.001,1488 560,1488 592.001,1488 592.001,1456 
		624.001,1456 624.001,1424.001 656.001,1424.001 656.001,1392.001 688.001,1392.001 688.001,1360.001 624.001,1360.001 
		624.001,1328.001 592.001,1328.001 592.001,1360.001 560,1360.001 560,1392.001 528,1392.001 528,1328.001 496,1328.001 
		496,1424.001 528,1424.001 528,1488 496.001,1488 496.001,1583.999 528.001,1583.999 528.001,1648.001 592.001,1648.001 
		592.001,1680.001 560,1680.001 560,1712.001 624.001,1712.001 624.001,1744.001 656.001,1744.001 656.001,1712.001 
		688.001,1712.001 688.001,1680.001 624.001,1680.001 624.001,1648.001 592.002,1648.001 592.002,1616.001 624.001,1616.001 
		624.001,1648.001 688.001,1648.001 688.001,1680.001 720.001,1680.001 720.001,1744.001 752.001,1744.001 752.001,1712.001 	"/>
	<polygon points="1072,1424.001 1008,1424.001 1008,1328.001 976,1328.001 976,1456 1008,1456 1008,1488 1072,1488 	"/>
	<rect x="944" y="1456" width="32" height="32"/>
	<polygon points="1168,1456 1168,1424.001 1104.002,1424.001 1104.002,1488 1072,1488 1072,1520 1040.002,1520 1040.002,1552.001 
		1072,1552.001 1072,1584 1104.002,1584 1104.002,1520 1136,1520 1136,1488 1200,1488 1200,1456 	"/>
	<polygon points="1200,1488 1200,1520 1136,1520 1136,1552.001 1168,1552.001 1168,1584 1200,1584 1200,1616.001 1168,1616.001 
		1168,1744.001 1232,1744.001 1232,1488 	"/>
	<rect x="1232" y="1424" width="32" height="64"/>
	<polygon points="1008,1296.001 1008,1264.001 1040.002,1264.001 1040.002,1232.001 1072,1232.001 1072,1200.001 1040.002,1200.001 
		1040.002,1168.001 1008,1168.001 1008,1200.001 1008,1232.001 976,1232.001 976,1264.001 912,1264.001 912,1232.001 976,1232.001 
		976,1200.001 944,1200.001 944,1168.001 880.002,1168.001 880.002,1296.001 944,1296.001 944,1328.001 976,1328.001 976,1296.001 	
		"/>
	<polygon points="1072,1296.001 1104.002,1296.001 1104.002,1264.001 1040.002,1264.001 1040.002,1296.001 1008,1296.001 
		1008,1328.001 1072,1328.001 	"/>
	<polygon points="1136,1584 1104.002,1584 1104.002,1616.001 1072,1616.001 1072,1584 1008,1584 1008,1488 976,1488 976,1616.001 
		944,1616.001 944,1648.001 1008,1648.001 1008,1616.001 1040.002,1616.001 1040.002,1648.001 1104.002,1648.001 1104.002,1744.001 
		1136,1744.001 1136,1616.001 1168,1616.001 1168,1584 	"/>
	<polygon points="912,1488 912,1456 944,1456 944,1328.001 880.002,1328.001 880.002,1584 912,1584 912,1616.001 944,1616.001 
		944,1488 	"/>
	<rect x="944" y="1104.001" width="64" height="64"/>
	<rect x="1744" y="1648.001" width="32" height="128"/>
	<rect x="1712" y="1616.001" width="32" height="32"/>
	<rect x="1744" y="1488" width="32" height="128.001"/>
	<polygon points="1680,1744.001 1616,1744.001 1616,1776.001 1712,1776.001 1712,1648.001 1680,1648.001 	"/>
	<polygon points="1648,1712.001 1648,1680.001 1616,1680.001 1616,1648.001 1584,1648.001 1584,1584 1520,1584 1520,1616.001 
		1488,1616.001 1488,1648.001 1456,1648.001 1456,1680.001 1424,1680.001 1424,1712.001 1392,1712.001 1392,1648.001 1360,1648.001 
		1360,1680.001 1328,1680.001 1328,1712.001 1360,1712.001 1360,1744.001 1392,1744.001 1392,1776.001 1488,1776.001 1488,1744.001 
		1520,1744.001 1520,1712.001 1552,1712.001 1552,1680.001 1584,1680.001 1584,1744.001 1616,1744.001 1616,1712.001 	"/>
	<polygon points="1616,1552.001 1648,1552.001 1648,1520 1616,1520 1616,1488 1584,1488 1584,1424.001 1520,1424.001 1520,1456 
		1488,1456 1488,1424.001 1424,1424.001 1424,1392.001 1392,1392.001 1392,1328.001 1360,1328.001 1360,1360.001 1328,1360.001 
		1328,1392.001 1360,1392.001 1360,1424.001 1392,1424.001 1392,1488 1360,1488 1360,1520 1328,1520 1328,1552.001 1360,1552.001 
		1360,1584 1392,1584 1392,1520 1424,1520 1424,1488 1552,1488 1552,1520 1584,1520 1584,1584 1616,1584 	"/>
	<polygon points="1552,1552.001 1552,1520 1424,1520 1424,1552.001 1456,1552.001 1456,1584 1520,1584 1520,1552.001 	"/>
	<rect x="1520" y="1744.001" width="64" height="32"/>
	<polygon points="1680,1424.001 1616,1424.001 1616,1488 1680,1488 1680,1456 1712,1456 1712,1328.001 1680,1328.001 	"/>
	<rect x="1392" y="1584" width="64.001" height="64.001"/>
	<polygon points="1680,1520 1680,1584 1616,1584 1616,1648.001 1680,1648.001 1680,1616.001 1712,1616.001 1712,1488 1680,1488 	"/>
	<rect x="1296" y="1424" width="64" height="64"/>
	<rect x="1296" y="1744.001" width="64" height="32"/>
	<polygon points="1360,1648.001 1360,1584 1296,1584 1296,1488 1264,1488 1264,1744.001 1296,1744.001 1296,1648.001 	"/>
	<rect x="1232" y="1744.001" width="32" height="32"/>
	<rect x="1136.002" y="1744.001" width="31.999" height="32"/>
	<rect x="1040.002" y="1744.001" width="64" height="32"/>
	<polygon points="976,1712.001 976,1744.001 912,1744.001 912,1712.001 976,1712.001 976,1680.001 944,1680.001 944,1648.001 
		880.002,1648.001 880.002,1776.001 1008,1776.001 1008,1744.001 1040,1744.001 1040,1712.001 1072,1712.001 1072,1680.001 
		1040,1680.001 1040,1648.001 1008,1648.001 1008,1712.001 	"/>
	<rect x="848" y="1584" width="32.002" height="64.001"/>
	<rect x="656.002" y="1744.001" width="63.998" height="32"/>
	<polygon points="560,1712.001 528.001,1712.001 528.001,1648.001 496,1648.001 496,1744.001 528.001,1744.001 528.001,1776.001 
		624.001,1776.001 624.001,1744.001 560,1744.001 	"/>
</g>
<polyline points="559.999,848.002 559.999,816.002 528,816.002 528,848.002 "/>
<polyline points="656,848.002 656,784.002 592,784.002 592,688.002 560,688.002 560,816.002 592,816.002 592,848.002 "/>
<polyline points="1040,848.002 1040,816.002 1008,816.002 1008,848.002 "/>
<polyline points="1743.998,848.002 1743.998,784.002 1775.998,784.002 1775.998,688.002 1743.998,688.002 1743.998,752.002 
	1712,752.002 1712,720.002 1679.998,720.002 1679.998,688.002 1615.998,688.002 1615.998,720.002 1583.998,720.002 
	1583.998,752.002 1711.998,752.002 1711.998,784.002 1583.998,784.002 1583.998,752.002 1551.998,752.002 1551.998,688.002 
	1519.998,688.002 1519.998,720.002 1487.998,720.002 1487.998,752.002 1519.998,752.002 1519.998,784.002 1551.998,784.002 
	1551.998,848.002 "/>
<polyline points="1391.998,944.002 1391.998,816.002 1359.999,816.002 1359.999,848.002 "/>
<polyline points="1615.997,848.002 1615.997,816.002 1679.997,816.002 1679.997,848.002 "/>
<rect x="528" y="624.001" width="32" height="64.001"/>
<rect x="496" y="688.002" width="32" height="128"/>
<polygon points="1423.999,656.002 1423.999,784.002 1455.998,784.002 1455.998,688.002 1519.998,688.002 1519.998,624.001 
	1455.998,624.001 1455.998,656.002 "/>
<rect x="1391.998" y="784.002" width="32.001" height="32"/>
<polygon points="848,752.002 848,720.002 720,720.002 720,752.002 752,752.002 752,784.002 815.999,784.002 815.999,752.002 "/>
<polygon points="944,752.002 944,720.002 912,720.002 912,688.002 880,688.002 880,624.001 815.999,624.001 815.999,656.002 
	784,656.002 784,624.001 720,624.001 720,592.001 688,592.001 688,528.001 656,528.001 656,560.001 624,560.001 624,592.001 
	656,592.001 656,624.001 688,624.001 688,688.002 656,688.002 656,720.002 624,720.002 624,752.002 656,752.002 656,784.002 
	688,784.002 688,720.002 720,720.002 720,688.002 848,688.002 848,720.002 880,720.002 880,784.002 912,784.002 912,752.002 "/>
<rect x="592" y="624.001" width="64" height="64.001"/>
<polygon points="848,592.001 848,560.001 784,560.001 784,528.001 752,528.001 752,560.001 720,560.001 720,592.001 784,592.001 
	784,624.001 815.999,624.001 815.999,592.001 "/>
<polygon points="1008,656.002 1008,528.001 976,528.001 976,624.001 912,624.001 912,688.002 976,688.002 976,656.002 "/>
<rect x="1008" y="656.002" width="32" height="32"/>
<polygon points="1136,656.002 1167.998,656.002 1167.998,624.001 1199.999,624.001 1199.999,592.001 1231.998,592.001 
	1231.998,560.001 1199.999,560.001 1199.999,528.001 1167.998,528.001 1167.998,592.001 1136,592.001 1136,624.001 1072,624.001 
	1072,592.001 1136,592.001 1136,560.001 1103.998,560.001 1103.998,528.001 1040,528.001 1040,656.002 1103.998,656.002 
	1103.998,688.002 1136,688.002 "/>
<rect x="528" y="464.001" width="32" height="32"/>
<rect x="496" y="496.001" width="32" height="128"/>
<rect x="1679.998" y="624.001" width="64" height="64.001"/>
<polygon points="1487.999,560.001 1487.999,592.001 1519.998,592.001 1519.998,624.001 1551.999,624.001 1551.999,688.002 
	1615.998,688.002 1615.998,656.002 1647.998,656.002 1647.998,624.001 1583.998,624.001 1583.998,592.001 1551.999,592.001 
	1551.999,560.001 1551.999,528.001 1519.998,528.001 1519.998,560.001 "/>
<rect x="1551.999" y="464.001" width="63.998" height="64"/>
<rect x="1391.998" y="624.001" width="32.001" height="32.001"/>
<path d="M1423.999,624.001h31.999v-96h64v-64h32v-64h32v32h32v32h64v-32H1712v-32h31.998v64H1712h-32.002v32h-32v32h-32v32h-32v32
	h64v32h32v-32H1712v-32h32v64h32v-96h-32v-64h31.998v-95.998h-32v-64.002H1776v-96h-32.002v-32h-96v32H1712v32h31.998v64h-64v-32
	H1712v-32h-64.002v-32h-32v32h-32v32h64v32h-64v-32h-32v-64h-32v32H1488v32h31.998v32h32v64.002h-32v31.998H1488v32h31.998v32h-64
	v-95.998H1424L1423.999,624.001z M1647.998,304.001h32v32h-32V304.001z M1583.998,368.003H1712v31.998h-128.002V368.003z"/>
<polygon points="1455.998,368.003 1519.998,368.003 1519.998,304.001 1456,304.001 1456,208.001 1519.998,208.001 1519.998,176.001 
	1424,176.001 1424,304.001 1455.998,304.001 "/>
<polygon points="1199.999,528.001 1264,528.001 1263.999,624.001 1295.999,624.001 1296,496.001 1264,496.001 1264,464.001 
	1199.999,464.001 "/>
<rect x="1296" y="464.001" width="32" height="32"/>
<polygon points="1103.998,496.001 1103.998,528.001 1167.998,528.001 1167.998,464.001 1199.999,464.001 1199.999,432.001 
	1231.998,432.001 1231.998,400.001 1199.999,400.001 1200,368.003 1167.998,368.003 1167.998,432.001 1136,432.001 1136,464.001 
	1072,464.001 1072,496.001 "/>
<polygon points="1072,464.001 1072,432.001 1136,432.001 1136,400.001 1103.998,400.001 1103.998,368.003 1072,368.003 
	1072,336.001 1103.998,336.001 1103.998,208.001 1040,208.001 1040,464.001 "/>
<rect x="1008" y="464.001" width="32" height="64"/>
<polygon points="1263.999,656.002 1263.999,688.002 1231.998,688.002 1231.998,720.002 1199.999,720.002 1199.999,752.002 
	1231.998,752.002 1231.998,784.002 1263.999,784.002 1263.999,752.002 1263.999,720.002 1295.999,720.002 1295.999,688.002 
	1359.999,688.002 1359.999,720.002 1295.999,720.002 1295.999,752.002 1327.999,752.002 1327.999,784.002 1391.998,784.002 
	1391.998,656.002 1327.999,656.002 1327.999,624.001 1295.999,624.001 1295.999,656.002 "/>
<polygon points="1199.999,656.002 1167.998,656.002 1167.998,688.002 1231.998,688.002 1231.998,656.002 1263.999,656.002 
	1263.999,624.001 1199.999,624.001 "/>
<polygon points="1136,368.003 1167.998,368.003 1167.998,336.001 1200,336.001 1200,368.003 1264,368.003 1264,464.001 
	1296,464.001 1296,336.001 1328,336.001 1328,304.001 1264,304.001 1264,336.001 1231.998,336.001 1231.998,304.001 
	1167.998,304.001 1167.998,208.001 1136,208.001 1136,336.001 1103.998,336.001 1103.998,368.003 "/>
<polygon points="1360,464.001 1360,496.001 1328,496.001 1327.999,624.001 1391.998,624.001 1391.998,368.003 1360,368.003 
	1360,336.001 1328,336.001 1328,464.001 "/>
<polyline points="1327.999,848.002 1327.999,784.002 1263.999,784.002 1263.999,848.002 "/>
<rect x="496" y="176.001" width="32" height="128"/>
<rect x="528" y="304.001" width="32" height="32"/>
<rect x="496" y="336.001" width="32" height="128"/>
<polygon points="592,208.001 656,208.001 656,176.001 560,176.001 560,304.001 592,304.001 "/>
<polygon points="624,240.001 624,272.001 656,272.001 656,304.001 688,304.001 688,368.003 752,368.003 752,336.001 784,336.001 
	784,304.001 815.999,304.001 815.999,272.001 848,272.001 848,240.001 880,240.001 880,304.001 912,304.001 912,272.001 
	944,272.001 944,240.001 912,240.001 912,208.001 880,208.001 880,176.001 784,176.001 784,208.001 752,208.001 752,240.001 
	720,240.001 720,272.001 688,272.001 688,208.001 752,208.001 752,176.001 688,176.001 688,208.001 656,208.001 656,240.001 "/>
<polygon points="688,528.001 752,528.001 752,496.001 784,496.001 784,528.001 848,528.001 848,560.001 880,560.001 880,624.001 
	912,624.001 912,592.001 944,592.001 944,560.001 912,560.001 912,528.001 880,528.001 880,464.001 912,464.001 912,432.001 
	944,432.001 944,400.001 912,400.001 912,368.003 880,368.003 880,432.001 848,432.001 848,464.001 720,464.001 720,432.001 
	688,432.001 688,368.003 656,368.003 656,400.001 624,400.001 624,432.001 656,432.001 656,464.001 688,464.001 "/>
<polygon points="720,400.001 720,432.001 848,432.001 848,400.001 815.999,400.001 815.999,368.003 752,368.003 752,400.001 "/>
<polygon points="592,528.001 656,528.001 656,464.001 592,464.001 592,496.001 560,496.001 560,624.001 592,624.001 "/>
<rect x="815.999" y="304.001" width="64.001" height="64.002"/>
<polygon points="592,368.003 656,368.003 656,304.001 592,304.001 592,336.001 560,336.001 560,464.001 592,464.001 592,432.001 "/>
<rect x="912" y="464.001" width="64" height="64"/>
<rect x="912" y="176.001" width="64" height="32"/>
<polygon points="912,304.001 912,368.003 976,368.003 976,464.001 1008,464.001 1008,208.001 976,208.001 976,304.001 "/>
<rect x="1008" y="176.001" width="32" height="32"/>
<rect x="1103.998" y="176.001" width="32" height="32"/>
<rect x="1167.998" y="176.001" width="64" height="32"/>
<polygon points="1296,240.001 1296,208.001 1360,208.001 1360,240.001 1296,240.001 1296,272.001 1328,272.001 1328,304.001 
	1391.998,304.001 1391.998,176.001 1264,176.001 1264,208.001 1232,208.001 1232,240.001 1200,240.001 1200,272.001 1232,272.001 
	1232,304.001 1264,304.001 1264,240.001 "/>
<rect x="1391.998" y="304.001" width="32.002" height="64.002"/>
<rect x="1552" y="176.001" width="63.998" height="32"/>
<polyline points="1103.998,944.002 1103.998,688.002 1040,688.002 1040,816.002 1072,816.002 1072,848.002 "/>
<polyline points="880,848.002 880,784.002 815.999,784.002 815.999,816.002 752,816.002 752,784.002 688,784.002 688,848.002 "/>
<polyline points="976,848.002 976,816.002 1008,816.002 1008,688.002 976,688.002 976,784.002 912,784.002 912,848.002 "/>
<polyline points="559.999,176.001 559.999,144.001 528,144.001 528,176.001 "/>
<polyline points="656,176.001 656,112.001 592,112.001 592,16.001 560,16.001 560,144.001 592,144.001 592,176.001 "/>
<polyline points="1040,176.001 1040,144.001 1008,144.001 1008,176.001 "/>
<polyline points="1231.998,176.001 1231.998,112.001 1167.998,112.001 1167.998,16.001 1136,16.001 1136,176.001 "/>
<polyline points="1519.998,176.001 1519.998,112.001 1455.998,112.001 1455.998,144.001 1424,144.001 1424,200.663 "/>
<polyline points="1743.998,176.001 1743.998,112.001 1775.998,112.001 1775.998,16.001 1743.998,16.001 1743.998,80.001 
	1712,80.001 1712,48.001 1679.998,48.001 1679.998,16.001 1615.998,16.001 1615.998,48.001 1583.998,48.001 1583.998,80.001 
	1711.998,80.001 1711.998,112.001 1583.998,112.001 1583.998,80.001 1551.998,80.001 1551.998,16.001 1519.998,16.001 
	1519.998,48.001 1487.998,48.001 1487.998,80.001 1519.998,80.001 1519.998,112.001 1551.998,112.001 1551.998,176.001 "/>
<polyline points="1391.998,272.001 1391.998,144.001 1360,144.001 1360,176.001 "/>
<polyline points="1615.998,176.001 1615.998,144.001 1679.998,144.001 1679.998,176.001 "/>
<rect x="528" y="-47.999" width="32" height="64"/>
<rect x="496" y="16.001" width="32" height="128"/>
<polygon points="1424,-15.999 1424,112.001 1455.998,112.001 1455.998,16.001 1519.998,16.001 1519.998,-47.999 1455.998,-47.999 
	1455.998,-15.999 "/>
<rect x="1391.998" y="112.001" width="32.002" height="32"/>
<polygon points="848,80.001 848,48.001 720,48.001 720,80.001 752,80.001 752,112.001 815.999,112.001 815.999,80.001 "/>
<polygon points="944,80.001 944,48.001 912,48.001 912,16.001 880,16.001 880,-47.999 815.999,-47.999 815.999,-15.999 784,-15.999 
	784,-47.999 720,-47.999 720,-79.999 688,-79.999 688,-143.999 656,-143.999 656,-111.999 624,-111.999 624,-79.999 656,-79.999 
	656,-47.999 688,-47.999 688,16.001 656,16.001 656,48.001 624,48.001 624,80.001 656,80.001 656,112.001 688,112.001 688,48.001 
	720,48.001 720,16.001 848,16.001 848,48.001 880,48.001 880,112.001 912,112.001 912,80.001 "/>
<rect x="592" y="-47.999" width="64" height="64"/>
<polygon points="848,-79.999 848,-111.999 784,-111.999 784,-143.999 752,-143.999 752,-111.999 720,-111.999 720,-79.999 
	784,-79.999 784,-47.999 815.999,-47.999 815.999,-79.999 "/>
<polygon points="1008,-15.999 1008,-143.999 976,-143.999 976,-47.999 912,-47.999 912,16.001 976,16.001 976,-15.999 "/>
<rect x="1008" y="-15.999" width="32" height="32"/>
<polygon points="1136,-15.999 1167.998,-15.999 1167.998,-47.999 1200,-47.999 1200,-79.999 1231.998,-79.999 1231.998,-111.999 
	1200,-111.999 1200,-143.999 1167.998,-143.999 1167.998,-79.999 1136,-79.999 1136,-47.999 1072,-47.999 1072,-79.999 
	1136,-79.999 1136,-111.999 1103.998,-111.999 1103.998,-143.999 1040,-143.999 1040,-15.999 1103.998,-15.999 1103.998,16.001 
	1136,16.001 "/>
<rect x="528" y="-207.999" width="32" height="32"/>
<rect x="496" y="-175.999" width="32" height="128"/>
<rect x="1679.998" y="-47.999" width="64" height="64"/>
<polygon points="1488,-111.999 1488,-79.999 1519.998,-79.999 1519.998,-47.999 1552,-47.999 1552,16.001 1615.998,16.001 
	1615.998,-15.999 1647.998,-15.999 1647.998,-47.999 1583.998,-47.999 1583.998,-79.999 1552,-79.999 1552,-111.999 1552,-143.999 
	1519.998,-143.999 1519.998,-111.999 "/>
<rect x="1552" y="-207.999" width="63.998" height="64"/>
<rect x="1391.998" y="-47.999" width="32.002" height="32"/>
<path d="M1424-47.999h31.998v-96h64v-64h32v-64h32v32h32v32h64v-32H1712v-32h31.998v64H1712h-32.002v32h-32v32h-32v32h-32v32h64v32
	h32v-32H1712v-32h32v64h32v-96h-32v-64h31.998v-95.998h-32v-64.002H1776v-96h-32.002v-32h-96v32H1712v32h31.998v64h-64v-32H1712v-32
	h-64.002v-32h-32v32h-32v32h64v32h-64v-32h-31.999v-64h-32v32H1488v32h31.999l-0.001,32h32v64.002h-32v31.998H1488v32h31.998v32h-64
	v-95.998H1424V-47.999z M1647.998-367.999h32v32h-32V-367.999z M1583.998-303.997H1712v31.998h-128.002V-303.997z"/>
<polygon points="1455.998,-303.997 1519.998,-303.997 1519.998,-367.999 1456,-367.999 1456,-463.999 1519.999,-463.999 
	1519.999,-495.999 1424,-495.999 1424,-367.999 1455.998,-367.999 "/>
<polygon points="1200,-143.999 1264,-143.999 1264,-47.999 1296,-47.999 1296,-175.999 1264,-175.999 1264,-207.999 1200,-207.999 
	"/>
<rect x="1296" y="-207.999" width="32" height="32"/>
<polygon points="1103.998,-175.999 1103.998,-143.999 1167.998,-143.999 1167.998,-207.999 1200,-207.999 1200,-239.999 
	1231.998,-239.999 1231.998,-271.999 1200,-271.999 1200,-303.997 1167.998,-303.997 1167.998,-239.999 1136,-239.999 
	1136,-207.999 1072,-207.999 1072,-175.999 "/>
<polygon points="1072,-207.999 1072,-239.999 1136,-239.999 1136,-271.999 1103.998,-271.999 1103.998,-303.997 1072,-303.997 
	1072,-335.999 1103.998,-335.999 1103.998,-463.999 1040,-463.999 1040,-207.999 "/>
<rect x="1008" y="-207.999" width="32" height="64"/>
<polygon points="1264,-15.999 1264,16.001 1231.998,16.001 1231.998,48.001 1200,48.001 1200,80.001 1231.998,80.001 
	1231.998,112.001 1264,112.001 1264,80.001 1264,48.001 1296,48.001 1296,16.001 1360,16.001 1360,48.001 1296,48.001 1296,80.001 
	1328,80.001 1328,112.001 1391.998,112.001 1391.998,-15.999 1328,-15.999 1328,-47.999 1296,-47.999 1296,-15.999 "/>
<polygon points="1200,-15.999 1167.998,-15.999 1167.998,16.001 1231.998,16.001 1231.998,-15.999 1264,-15.999 1264,-47.999 
	1200,-47.999 "/>
<polygon points="1136,-303.997 1167.998,-303.997 1167.999,-335.999 1200,-335.999 1200,-303.997 1264,-303.997 1264,-207.999 
	1296,-207.999 1296,-335.999 1328,-335.999 1328,-367.999 1264,-367.999 1264,-335.999 1231.998,-335.999 1231.998,-367.999 
	1167.999,-367.999 1167.999,-463.999 1136,-463.999 1136,-335.999 1103.998,-335.999 1103.998,-303.997 "/>
<polygon points="1360,-207.999 1360,-175.999 1328,-175.999 1328,-47.999 1391.998,-47.999 1391.998,-303.997 1360,-303.997 
	1360,-335.999 1328,-335.999 1328,-207.999 "/>
<polyline points="1328,176.001 1328,112.001 1264,112.001 1264,176.001 "/>
<rect x="496" y="-495.999" width="32" height="128"/>
<rect x="528" y="-367.999" width="32" height="32"/>
<rect x="496" y="-335.999" width="32" height="128"/>
<polygon points="592,-463.999 656,-463.999 656,-495.999 560,-495.999 560,-367.999 592,-367.999 "/>
<polygon points="624,-431.999 624,-399.999 656,-399.999 656,-367.999 688,-367.999 688,-303.997 752,-303.997 752,-335.999 
	784,-335.999 784,-367.999 815.999,-367.999 815.999,-399.999 848,-399.999 848,-431.999 880,-431.999 880,-367.999 912,-367.999 
	912,-399.999 944,-399.999 944,-431.999 912,-431.999 912,-463.999 880,-463.999 880,-495.999 784,-495.999 784,-463.999 
	752,-463.999 752,-431.999 720,-431.999 720,-399.999 688,-399.999 688,-463.999 752,-463.999 752,-495.999 688,-495.999 
	688,-463.999 656,-463.999 656,-431.999 "/>
<polygon points="688,-143.999 752,-143.999 752,-175.999 784,-175.999 784,-143.999 848,-143.999 848,-111.999 880,-111.999 
	880,-47.999 912,-47.999 912,-79.999 944,-79.999 944,-111.999 912,-111.999 912,-143.999 880,-143.999 880,-207.999 912,-207.999 
	912,-239.999 944,-239.999 944,-271.999 912,-271.999 912,-303.997 880,-303.997 880,-239.999 848,-239.999 848,-207.999 
	720,-207.999 720,-239.999 688,-239.999 688,-303.997 656,-303.997 656,-271.999 624,-271.999 624,-239.999 656,-239.999 
	656,-207.999 688,-207.999 "/>
<polygon points="720,-271.999 720,-239.999 848,-239.999 848,-271.999 815.999,-271.999 815.999,-303.997 752,-303.997 
	752,-271.999 "/>
<polygon points="592,-143.999 656,-143.999 656,-207.999 592,-207.999 592,-175.999 560,-175.999 560,-47.999 592,-47.999 "/>
<rect x="815.999" y="-367.999" width="64.001" height="64.002"/>
<polygon points="592,-303.997 656,-303.997 656,-367.999 592,-367.999 592,-335.999 560,-335.999 560,-207.999 592,-207.999 
	592,-239.999 "/>
<rect x="912" y="-207.999" width="64" height="64"/>
<rect x="912" y="-495.999" width="64" height="32"/>
<polygon points="912,-367.999 912,-303.997 976,-303.997 976,-207.999 1008,-207.999 1008,-463.999 976,-463.999 976,-367.999 "/>
<rect x="1008" y="-495.999" width="32" height="32"/>
<rect x="1103.998" y="-495.999" width="32" height="32"/>
<rect x="1167.999" y="-495.999" width="64" height="32"/>
<polygon points="1296,-431.999 1296,-463.999 1360,-463.999 1360,-431.999 1296,-431.999 1296,-399.999 1328,-399.999 
	1328,-367.999 1391.998,-367.999 1391.999,-495.999 1264,-495.999 1264,-463.999 1232,-463.999 1232,-431.999 1200,-431.999 
	1200,-399.999 1232,-399.999 1232,-367.999 1264,-367.999 1264,-431.999 "/>
<rect x="1391.998" y="-367.999" width="32.002" height="64.002"/>
<rect x="1552" y="-495.999" width="63.998" height="32"/>
<polyline points="1103.998,272.001 1103.998,16.001 1040,16.001 1040,144.001 1072,144.001 1072,208.001 "/>
<polyline points="880,176.001 880,112.001 815.999,112.001 815.999,144.001 752,144.001 752,112.001 688,112.001 688,176.001 "/>
<polyline points="976,176.001 976,144.001 1008,144.001 1008,16.001 976,16.001 976,112.001 912,112.001 912,176.001 "/>
<polygon points="1455.998,816.002 1423.999,816.002 1423.999,944.002 1455.998,944.002 1455.998,848.002 1519.998,848.002 
	1519.998,784.002 1455.998,784.002 "/>
<polygon points="1167.998,784.002 1167.998,688.002 1136,688.002 1136,944.002 1167.998,944.002 1167.998,848.002 1231.998,848.002 
	1231.998,784.002 "/>
</svg>
