<?xml version="1.0" encoding="utf-8"?>
<!-- Generator: Adobe Illustrator 16.0.0, SVG Export Plug-In . SVG Version: 6.00 Build 0)  -->
<!DOCTYPE svg PUBLIC "-//W3C//DTD SVG 1.1//EN" "http://www.w3.org/Graphics/SVG/1.1/DTD/svg11.dtd">
<svg version="1.1" id="Ebene_1" xmlns="http://www.w3.org/2000/svg" xmlns:xlink="http://www.w3.org/1999/xlink" x="0px" y="0px"
	 width="1280.001px" height="1600px" viewBox="0 0 1280.001 1600" enable-background="new 0 0 1280.001 1600" xml:space="preserve">
<g>
	<rect y="672" width="32" height="128"/>
	<rect x="32" y="640" width="31.999" height="32"/>
	<polygon points="319.999,736 352,736 352,704 224,704 224,736 256,736 256,768 319.999,768 	"/>
	<polygon points="319.999,799.999 256.001,799.999 256.001,831.999 288,831.999 320,831.999 320,800 352,800 352,831.999 
		384.001,831.999 384.001,799.999 384,799.999 384,768 319.999,768 	"/>
	<polygon points="160,608 96,608 96,512 64,512 64,640 96,640 96,672 160,672 	"/>
	<rect x="512" y="640" width="32" height="32"/>
	<polygon points="671.999,608 671.999,512 640,512 640,768 671.999,768 671.999,672 735.999,672 735.999,608 	"/>
	<polygon points="672,799.999 640.001,799.999 640.001,831.999 672.002,831.999 672.002,800 704.001,800 704.001,831.999 
		672.002,831.999 672.002,1088 736.001,1088 736.001,959.999 704.001,959.999 704.001,927.999 736.001,927.999 736.001,799.999 
		735.999,799.999 735.999,768 672,768 	"/>
	<polygon points="959.999,640 928,640 928,768 959.999,768 959.999,672 1023.999,672 1023.999,608 959.999,608 	"/>
	<polygon points="1216,576 1216,544 1183.999,544 1183.999,512 1119.999,512 1119.999,544 1087.999,544 1087.999,576 1215.999,576 
		1215.999,608 1087.999,608 1087.999,576 1055.999,576 1055.999,512 1023.999,512 1023.999,544 991.999,544 991.999,576 
		1023.999,576 1023.999,608 1055.999,608 1055.999,672 1119.998,672 1119.998,640 1183.998,640 1183.998,672 1119.999,672 
		1119.999,704 1087.999,704 1087.999,736 1215.999,736 1215.999,767.999 1087.999,767.999 1087.999,736 1055.999,736 1055.999,672 
		1023.999,672 1023.999,703.999 991.999,703.999 991.999,736 1023.999,736 1023.999,767.999 1055.999,767.999 1055.999,799.999 
		1024.001,799.999 1024.001,831.999 1088.001,831.999 1088.001,800 1120.001,800 1120.001,831.999 1088.001,831.999 
		1088.001,895.999 1056.001,895.999 1056.001,927.999 928.001,927.999 928.001,895.999 896.001,895.999 896.001,831.999 
		864.001,831.999 864.001,799.999 864,799.999 864,768 895.999,768 895.999,640 864,640 864,672 832,672 832,704 800,704 800,736 
		768,736 768,672 735.999,672 735.999,704 704,704 704,736 735.999,736 735.999,768 768,768 768,800 768.001,800 768.001,927.999 
		800.001,927.999 800.001,832 864.001,832 864.001,863.999 832.001,863.999 832.001,895.999 864.001,895.999 864.001,927.999 
		896.001,927.999 896.001,991.999 960.002,991.999 960.002,959.999 1024.001,959.999 1024.001,991.999 1088.001,991.999 
		1088.001,927.999 1120.001,927.999 1120.001,895.999 1152.001,895.999 1152.001,863.999 1120.001,863.999 1120.001,832 
		1184.001,832 1184.001,927.999 1216.001,927.999 1216.001,800 1247.999,800 1247.999,767.999 1279.999,767.999 1279.999,672 
		1247.999,672 1247.999,736 1216,736 1216,704 1183.999,704 1183.999,672 1247.999,672 1247.999,608 1279.999,608 1279.999,512 
		1247.999,512 1247.999,576 	"/>
	<rect x="32" y="448" width="32" height="64"/>
	<rect y="512" width="32" height="128"/>
	<polygon points="928,480 928,608 959.999,608 959.999,512 1023.999,512 1023.999,448 959.999,448 959.999,480 	"/>
	<rect x="895.999" y="608" width="32.001" height="32"/>
	<polygon points="352,576 352,544 224,544 224,576 256,576 256,608 319.999,608 319.999,576 	"/>
	<polygon points="448,576 448,544 416,544 416,512 384,512 384,448 319.999,448 319.999,480 288,480 288,448 224,448 224,416 
		192,416 192,352 160,352 160,384 128,384 128,416 160,416 160,448 192,448 192,512 160,512 160,544 128,544 128,576 160,576 
		160,608 192,608 192,544 224,544 224,512 352,512 352,544 384,544 384,608 416,608 416,576 	"/>
	<rect x="96" y="448" width="64" height="64"/>
	<polygon points="352,416 352,384 288,384 288,352 256,352 256,384 224,384 224,416 288,416 288,448 319.999,448 319.999,416 	"/>
	<polygon points="512,480 512,352 480,352 480,448 416,448 416,512 480,512 480,480 	"/>
	<rect x="512" y="480" width="32" height="32"/>
	<polygon points="640,480 671.999,480 671.999,448 704,448 704,416 735.999,416 735.999,384 704,384 704,352 671.999,352 
		671.999,416 640,416 640,448 576,448 576,416 640,416 640,384 607.999,384 607.999,352 544,352 544,480 607.999,480 607.999,512 
		640,512 	"/>
	<rect x="32" y="288" width="32" height="32"/>
	<rect y="320" width="32" height="128"/>
	<rect x="1183.999" y="448" width="64" height="64"/>
	<polygon points="992,384 992,416 1023.999,416 1023.999,448 1056,448 1056,512 1119.999,512 1119.999,480 1151.999,480 
		1151.999,448 1087.999,448 1087.999,416 1056,416 1056,384 1056,352 1023.999,352 1023.999,384 	"/>
	<rect x="1056" y="288" width="63.999" height="64"/>
	<rect x="895.999" y="448" width="32.001" height="32"/>
	<path d="M928,448h31.999v-96h64v-64h32v-64h32v32h32v32h64v-32H1216v-32h31.999v64H1216h-32.001v32h-32v32h-32v32h-32v32h64v32h32
		v-32H1216v-32h32v64h32v-96h-32v-64h31.999v-95.999h-32V128H1280V32h-32.001V0h-96v32H1216v32h31.999v64h-64V96H1216V64h-64.001V32
		h-32v32h-32v32h64v32h-64V96h-32V32h-32v32H992v32h31.999V128h32v64.002h-32V224H992v32h31.999v32h-64v-95.999H928V448z
		 M1151.999,128h31.999v32h-31.999V128z M1087.999,192.001H1216V224h-128.001V192.001z"/>
	<polygon points="959.999,192.001 1023.999,192.001 1023.999,128 960,128 960,32 1023.999,32 1023.999,0 928,0 928,128 959.999,128 
			"/>
	<polygon points="704,352 768,352 768,448 800,448 800,320 768,320 768,288 704,288 	"/>
	<rect x="800" y="288" width="32" height="32"/>
	<polygon points="607.999,320 607.999,352 671.999,352 671.999,288 704,288 704,256 735.999,256 735.999,224 704,224 704,192.001 
		671.999,192.001 671.999,256 640,256 640,288 576,288 576,320 	"/>
	<polygon points="576,288 576,256 640,256 640,224 607.999,224 607.999,192.001 576,192.001 576,160 607.999,160 607.999,32 544,32 
		544,288 	"/>
	<rect x="512" y="288" width="32" height="64"/>
	<polygon points="768,480 768,512 735.999,512 735.999,544 704,544 704,576 735.999,576 735.999,608 768,608 768,576 768,544 
		800,544 800,512 864,512 864,544 800,544 800,576 832,576 832,608 895.999,608 895.999,480 832,480 832,448 800,448 800,480 	"/>
	<polygon points="704,480 671.999,480 671.999,512 735.999,512 735.999,480 768,480 768,448 704,448 	"/>
	<polygon points="640,192.001 671.999,192.001 671.999,160 704,160 704,192.001 768,192.001 768,288 800,288 800,160 832,160 
		832,128 768,128 768,160 735.999,160 735.999,128 671.999,128 671.999,32 640,32 640,160 607.999,160 607.999,192.001 	"/>
	<polygon points="864,288 864,320 832,320 832,448 895.999,448 895.999,192.001 864,192.001 864,160 832,160 832,288 	"/>
	<rect x="768" y="608" width="64" height="64"/>
	<rect width="32" height="128"/>
	<rect x="32" y="128" width="32" height="32"/>
	<rect y="160" width="32" height="128"/>
	<polygon points="96,32 160,32 160,0 64,0 64,128 96,128 	"/>
	<polygon points="128,64 128,96 160,96 160,128 192,128 192,192.001 256,192.001 256,160 288,160 288,128 319.999,128 319.999,96 
		352,96 352,64 384,64 384,128 416,128 416,96 448,96 448,64 416,64 416,32 384,32 384,0 288,0 288,32 256,32 256,64 224,64 224,96 
		192,96 192,32 256,32 256,0 192,0 192,32 160,32 160,64 	"/>
	<polygon points="192,352 256,352 256,320 288,320 288,352 352,352 352,384 384,384 384,448 416,448 416,416 448,416 448,384 
		416,384 416,352 384,352 384,288 416,288 416,256 448,256 448,224 416,224 416,192.001 384,192.001 384,256 352,256 352,288 
		224,288 224,256 192,256 192,192.001 160,192.001 160,224 128,224 128,256 160,256 160,288 192,288 	"/>
	<polygon points="224,224 224,256 352,256 352,224 319.999,224 319.999,192.001 256,192.001 256,224 	"/>
	<polygon points="96,352 160,352 160,288 96,288 96,320 64,320 64,448 96,448 	"/>
	<rect x="319.999" y="128" width="64.001" height="64.001"/>
	<polygon points="96,192.001 160,192.001 160,128 96,128 96,160 64,160 64,288 96,288 96,256 	"/>
	<rect x="416" y="288" width="64" height="64"/>
	<rect x="416" width="64" height="32"/>
	<polygon points="416,128 416,192.001 480,192.001 480,288 512,288 512,32 480,32 480,128 	"/>
	<rect x="512" width="32" height="32"/>
	<rect x="607.999" width="32" height="32"/>
	<rect x="671.999" width="64" height="32"/>
	<polygon points="800,64 800,32 864,32 864,64 800,64 800,96 832,96 832,128 895.999,128 895.999,0 768,0 768,32 736,32 736,64 
		704,64 704,96 736,96 736,128 768,128 768,64 	"/>
	<rect x="895.999" y="128" width="32.001" height="64.001"/>
	<rect x="1056" width="63.998" height="32"/>
	<rect x="1248.001" y="799.999" width="32" height="128"/>
	<rect x="1216.002" y="927.999" width="31.999" height="32"/>
	<polygon points="960.002,863.999 928.001,863.999 928.001,895.999 1056.001,895.999 1056.001,863.999 1024.001,863.999 
		1024.001,831.999 960.002,831.999 	"/>
	<polygon points="960.002,800 1023.999,800 1023.999,768 992,768 960,768 960,799.999 928,799.999 928,768 895.999,768 895.999,800 
		896.001,800 896.001,831.999 960.002,831.999 	"/>
	<polygon points="1120.001,991.999 1184.001,991.999 1184.001,1088 1216.001,1088 1216.001,959.999 1184.001,959.999 
		1184.001,927.999 1120.001,927.999 	"/>
	<rect x="736.001" y="927.999" width="32" height="32"/>
	<polygon points="608.001,991.999 608.001,1088 640.001,1088 640.001,831.999 608.001,831.999 608.001,927.999 544.001,927.999 
		544.001,991.999 	"/>
	<polygon points="608,800 640,800 640,768 607.999,768 607.999,799.999 576,799.999 576,768 607.999,768 607.999,512 544,512 
		544,640 576,640 576,672 544,672 544,800 544.001,800 544.001,831.999 608,831.999 	"/>
	<polygon points="320.001,959.999 352,959.999 352,831.999 320.001,831.999 320.001,927.999 256.001,927.999 256.001,991.999 
		320.001,991.999 	"/>
	<polygon points="768.001,959.999 768.001,1088 800.001,1088 800.001,991.999 864.001,991.999 864.001,927.999 800.001,927.999 
		800.001,959.999 	"/>
	<polygon points="64,1023.999 64,1055.999 96.001,1055.999 96.001,1088 160.001,1088 160.001,1055.999 192.001,1055.999 
		192.001,1023.999 64.001,1023.999 64.001,991.999 192.001,991.999 192.001,1023.999 224.001,1023.999 224.001,1088 256.001,1088 
		256.001,1055.999 288.001,1055.999 288.001,1023.999 256.001,1023.999 256.001,991.999 224.001,991.999 224.001,927.999 
		160.002,927.999 160.002,959.999 96.002,959.999 96.002,927.999 160.001,927.999 160.001,895.999 192.001,895.999 192.001,863.999 
		64.001,863.999 64.001,832 192.001,832 192.001,863.999 224.001,863.999 224.001,927.999 256.001,927.999 256.001,896 288.001,896 
		288.001,863.999 256.001,863.999 256.001,832 224.001,832 224.001,800 256,800 256,768 192,768 192,799.999 160,799.999 160,768 
		192,768 192,704 224,704 224,672 352,672 352,704 384,704 384,768 416,768 416,800 416,800 416,831.999 384.001,831.999 
		384.001,959.999 416,959.999 416,927.999 448,927.999 448,895.999 480,895.999 480,863.999 512,863.999 512,927.999 
		544.001,927.999 544.001,895.999 576,895.999 576,863.999 544.001,863.999 544.001,831.999 512,831.999 512,799.999 512,799.999 
		512,672 480,672 480,640 512,640 512,512 480,512 480,608 416,608 416,672 480,672 480,767.999 416,767.999 416,736 448,736 
		448,704 416,704 416,672 384,672 384,608 319.999,608 319.999,640 256,640 256,608 192,608 192,672 160,672 160,704 128,704 
		128,736 160,736 160,767.999 96,767.999 96,672 64,672 64,799.999 32.001,799.999 32.001,832 0.001,832 0.001,927.999 
		32.001,927.999 32.001,863.999 64,863.999 64,895.999 96.001,895.999 96.001,927.999 32.001,927.999 32.001,991.999 0.001,991.999 
		0.001,1088 32.001,1088 32.001,1023.999 	"/>
	<rect x="1216.001" y="1088" width="32" height="64"/>
	<rect x="1248.001" y="959.999" width="32" height="128.001"/>
	<polygon points="320.001,1152 320.001,1120 352,1120 352,991.999 320.001,991.999 320.001,1088 256.001,1088 256.001,1152 	"/>
	<rect x="352" y="959.999" width="32.001" height="32"/>
	<polygon points="928.001,1023.999 928.001,1055.999 1056.001,1055.999 1056.001,1023.999 1024.001,1023.999 1024.001,991.999 
		960.002,991.999 960.002,1023.999 	"/>
	<polygon points="864.001,1023.999 832.001,1023.999 832.001,1055.999 864.001,1055.999 864.001,1088 896.001,1088 896.001,1152 
		960.002,1152 960.002,1120 992.001,1120 992.001,1152 1056.001,1152 1056.001,1184 1088.001,1184 1088.001,1247.999 
		1120.001,1247.999 1120.001,1215.999 1152.001,1215.999 1152.001,1184 1120.001,1184 1120.001,1152 1088.001,1152 1088.001,1088 
		1120.001,1088 1120.001,1055.999 1152.001,1055.999 1152.001,1023.999 1120.001,1023.999 1120.001,991.999 1088.001,991.999 
		1088.001,1055.999 1056.001,1055.999 1056.001,1088 928.001,1088 928.001,1055.999 896.001,1055.999 896.001,991.999 
		864.001,991.999 	"/>
	<rect x="1120.001" y="1088" width="64" height="64"/>
	<polygon points="1056.001,1215.999 1056.001,1184 992.001,1184 992.001,1152 960.002,1152 960.002,1184 928.001,1184 
		928.001,1215.999 992.001,1215.999 992.001,1247.999 1024.001,1247.999 1024.001,1215.999 	"/>
	<polygon points="800.001,1088 800.001,1120 768.001,1120 768.001,1247.999 800.001,1247.999 800.001,1152 864.001,1152 
		864.001,1088 	"/>
	<rect x="736.001" y="1088" width="32" height="32"/>
	<polygon points="672.002,1120 672.002,1088 640.001,1088 640.001,1120 608.001,1120 608.001,1152 576,1152 576,1184 544.001,1184 
		544.001,1215.999 576,1215.999 576,1247.999 608.001,1247.999 608.001,1184 640.001,1184 640.001,1152 704.001,1152 704.001,1184 
		640.001,1184 640.001,1215.999 672.002,1215.999 672.002,1247.999 736.001,1247.999 736.001,1120 	"/>
	<rect x="1216.001" y="1279.999" width="32" height="32"/>
	<rect x="1248.001" y="1152" width="32" height="127.999"/>
	<rect x="32.001" y="1088" width="64" height="64"/>
	<polygon points="224,1215.999 224,1247.999 256.001,1247.999 256.001,1215.999 288,1215.999 288,1184 256.001,1184 256.001,1152 
		224,1152 224,1088 160.001,1088 160.001,1120 128.001,1120 128.001,1152 192.001,1152 192.001,1184 224,1184 	"/>
	<rect x="160.001" y="1247.999" width="63.999" height="64"/>
	<rect x="352" y="1120" width="32.001" height="32"/>
	<polygon points="160.001,1343.999 160.001,1311.999 96.001,1311.999 96.001,1343.999 64,1343.999 64,1376 192.001,1376 
		192.001,1343.999 	"/>
	<polygon points="320.001,1152 320.001,1247.999 256.001,1247.999 256.001,1311.999 320.001,1311.999 320.001,1407.999 
		352,1407.999 352,1152 	"/>
	<polygon points="320.001,1407.999 256.001,1407.999 256.001,1472 320,1472 320,1568 256.001,1568 256.001,1600 352,1600 352,1472 
		320.001,1472 	"/>
	<polygon points="288,1536 288,1504 256.001,1504 256.001,1472 224.001,1472 224.001,1407.998 256.001,1407.998 256.001,1376 
		288,1376 288,1343.999 256.001,1343.999 256.001,1311.999 224.001,1311.999 224.001,1376 192.001,1376 192.001,1407.998 
		64,1407.998 64,1376 32.001,1376 32.001,1311.999 64,1311.999 96.001,1311.999 96.001,1279.999 128.001,1279.999 128.001,1247.999 
		160.001,1247.999 160.001,1215.999 192.001,1215.999 192.001,1184 128.001,1184 128.001,1152 96.001,1152 96.001,1184 64,1184 
		64,1215.999 32,1215.999 32,1152 0,1152 0,1247.999 32,1247.999 32,1311.999 0.001,1311.999 0.001,1407.998 32.001,1407.998 
		32.001,1472 96.001,1472 96.001,1504 64,1504 64,1536 128.001,1536 128.001,1568 160.001,1568 160.001,1536 192.001,1536 
		192.001,1504 128.001,1504 128.001,1472 96.002,1472 96.002,1440 128.001,1440 128.001,1472 192.001,1472 192.001,1504 
		224.001,1504 224.001,1568 256.001,1568 256.001,1536 	"/>
	<polygon points="576,1247.999 512,1247.999 512,1152 480,1152 480,1279.999 512,1279.999 512,1311.999 576,1311.999 	"/>
	<rect x="448" y="1279.999" width="32" height="32"/>
	<polygon points="672.002,1279.999 672.002,1247.999 608.001,1247.999 608.001,1311.999 576,1311.999 576,1343.999 
		544.001,1343.999 544.001,1376 576,1376 576,1407.999 608.001,1407.999 608.001,1343.999 640.001,1343.999 640.001,1311.999 
		704.001,1311.999 704.001,1279.999 	"/>
	<polygon points="704.001,1311.999 704.001,1343.999 640.001,1343.999 640.001,1376 672.002,1376 672.002,1407.999 
		704.001,1407.999 704.001,1440 672.002,1440 672.002,1568 736.001,1568 736.001,1311.999 	"/>
	<rect x="736.001" y="1247.999" width="32" height="64"/>
	<polygon points="512,1120 512,1088 544.001,1088 544.001,1055.999 576,1055.999 576,1023.999 544.001,1023.999 544.001,991.999 
		512,991.999 512,1023.999 512,1055.999 480,1055.999 480,1088 416,1088 416,1055.999 480,1055.999 480,1023.999 448,1023.999 
		448,991.999 384.001,991.999 384.001,1120 448,1120 448,1152 480,1152 480,1120 	"/>
	<polygon points="576,1120 608.001,1120 608.001,1088 544.001,1088 544.001,1120 512,1120 512,1152 576,1152 	"/>
	<polygon points="640.001,1407.999 608.001,1407.999 608.001,1440 576,1440 576,1407.999 512,1407.999 512,1311.999 480,1311.999 
		480,1440 448,1440 448,1472 512,1472 512,1440 544.001,1440 544.001,1472 608.001,1472 608.001,1568 640.001,1568 640.001,1440 
		672.002,1440 672.002,1407.999 	"/>
	<polygon points="416,1311.999 416,1279.999 448,1279.999 448,1152 384.001,1152 384.001,1407.999 416,1407.999 416,1440 448,1440 
		448,1311.999 	"/>
	<rect x="448" y="927.999" width="64" height="64"/>
	<rect x="1248.001" y="1472" width="32" height="128"/>
	<rect x="1216.001" y="1440" width="32" height="32"/>
	<rect x="1248.001" y="1311.999" width="32" height="128.001"/>
	<polygon points="1184.001,1568 1120.001,1568 1120.001,1600 1216.001,1600 1216.001,1472 1184.001,1472 	"/>
	<polygon points="1152.001,1536 1152.001,1504 1120.001,1504 1120.001,1472 1088.001,1472 1088.001,1407.999 1024.001,1407.999 
		1024.001,1440 992.001,1440 992.001,1472 960.002,1472 960.002,1504 928.001,1504 928.001,1536 896.001,1536 896.001,1472 
		864.001,1472 864.001,1504 832.001,1504 832.001,1536 864.001,1536 864.001,1568 896.001,1568 896.001,1600 992.001,1600 
		992.001,1568 1024.001,1568 1024.001,1536 1056.001,1536 1056.001,1504 1088.001,1504 1088.001,1568 1120.001,1568 1120.001,1536 	
		"/>
	<polygon points="1120.001,1376 1152.001,1376 1152.001,1343.999 1120.001,1343.999 1120.001,1311.999 1088.001,1311.999 
		1088.001,1247.999 1024.001,1247.999 1024.001,1279.999 992.001,1279.999 992.001,1247.999 928.001,1247.999 928.001,1215.999 
		896.001,1215.999 896.001,1152 864.001,1152 864.001,1184 832.001,1184 832.001,1215.999 864.001,1215.999 864.001,1247.999 
		896.001,1247.999 896.001,1311.999 864.001,1311.999 864.001,1343.999 832.001,1343.999 832.001,1376 864.001,1376 
		864.001,1407.999 896.001,1407.999 896.001,1343.999 928.001,1343.999 928.001,1311.999 1056.001,1311.999 1056.001,1343.999 
		1088.001,1343.999 1088.001,1407.999 1120.001,1407.999 	"/>
	<polygon points="1056.001,1376 1056.001,1343.999 928.001,1343.999 928.001,1376 960.002,1376 960.002,1407.999 1024.001,1407.999 
		1024.001,1376 	"/>
	<rect x="1024.001" y="1568" width="64" height="32"/>
	<polygon points="1184.001,1247.999 1120.001,1247.999 1120.001,1311.999 1184.001,1311.999 1184.001,1279.999 1216.001,1279.999 
		1216.001,1152 1184.001,1152 	"/>
	<rect x="896.001" y="1407.999" width="64.001" height="64.001"/>
	<polygon points="1184.001,1343.999 1184.001,1407.999 1120.001,1407.999 1120.001,1472 1184.001,1472 1184.001,1440 1216.001,1440 
		1216.001,1311.999 1184.001,1311.999 	"/>
	<rect x="800.001" y="1247.999" width="64" height="64"/>
	<rect x="800.001" y="1568" width="64" height="32"/>
	<polygon points="864.001,1472 864.001,1407.999 800.001,1407.999 800.001,1311.999 768.001,1311.999 768.001,1568 800.001,1568 
		800.001,1472 	"/>
	<rect x="736.001" y="1568" width="32" height="32"/>
	<rect x="640.002" y="1568" width="32" height="32"/>
	<rect x="544.001" y="1568" width="64" height="32"/>
	<polygon points="480,1536 480,1568 416,1568 416,1536 480,1536 480,1504 448,1504 448,1472 384.001,1472 384.001,1600 512,1600 
		512,1568 544,1568 544,1536 576,1536 576,1504 544,1504 544,1472 512,1472 512,1536 	"/>
	<rect x="352" y="1407.999" width="32.001" height="64.001"/>
	<rect x="160.002" y="1568" width="63.998" height="32"/>
	<polygon points="64,1536 32.001,1536 32.001,1472 0,1472 0,1568 32.001,1568 32.001,1600 128.001,1600 128.001,1568 64,1568 	"/>
</g>
</svg>
