<?xml version="1.0" encoding="utf-8"?>
<!-- Generator: Adobe Illustrator 16.0.0, SVG Export Plug-In . SVG Version: 6.00 Build 0)  -->
<!DOCTYPE svg PUBLIC "-//W3C//DTD SVG 1.1//EN" "http://www.w3.org/Graphics/SVG/1.1/DTD/svg11.dtd">
<svg version="1.1" id="Ebene_1" xmlns="http://www.w3.org/2000/svg" xmlns:xlink="http://www.w3.org/1999/xlink" x="0px" y="0px"
	 width="595.275px" height="540.234px" viewBox="0 0 595.275 540.234" enable-background="new 0 0 595.275 540.234"
	 xml:space="preserve">
<g>
	<path fill="#F0D722" d="M297.975,74.798c38.218-39.793,71.9-74.995,130.204-74.995c90.517,0,160.666,71.657,166.898,159.804
		c3.904,54.951-13.098,99.698-53.511,140.797c-67.133,68.277-243.591,239.633-243.591,239.633S121.545,368.681,54.398,300.404
		c-40.399-41.1-57.401-85.847-53.51-140.797C7.12,71.46,77.283-0.198,167.787-0.198C226.089-0.198,259.785,35.005,297.975,74.798"/>
	<polygon points="156.252,241.821 212.945,241.821 212.945,213.475 184.598,213.475 184.598,185.128 156.252,185.128 	"/>
	<polygon points="255.464,270.168 283.811,270.168 283.811,241.821 312.157,241.821 312.157,213.475 283.811,213.475 
		283.811,185.128 255.464,185.128 	"/>
	<polygon points="156.252,270.168 156.252,298.515 241.291,298.515 241.291,270.168 241.291,241.821 212.945,241.821 
		212.945,270.168 	"/>
	<rect x="184.598" y="156.782" width="56.693" height="28.346"/>
	<rect x="283.811" y="156.782" width="56.693" height="28.346"/>
	<rect x="283.811" y="270.167" width="56.692" height="28.346"/>
	<rect x="354.677" y="156.781" width="28.346" height="113.386"/>
	<rect x="383.024" y="270.168" width="28.347" height="28.348"/>
	<rect x="411.37" y="156.782" width="28.347" height="113.386"/>
</g>
</svg>
