<?xml version="1.0" encoding="utf-8"?>
<!-- Generator: Adobe Illustrator 16.0.0, SVG Export Plug-In . SVG Version: 6.00 Build 0)  -->
<!DOCTYPE svg PUBLIC "-//W3C//DTD SVG 1.1//EN" "http://www.w3.org/Graphics/SVG/1.1/DTD/svg11.dtd">
<svg version="1.1" id="OBJECTS" xmlns="http://www.w3.org/2000/svg" xmlns:xlink="http://www.w3.org/1999/xlink" x="0px" y="0px"
	 width="141.732px" height="141.73px" viewBox="0 0 141.732 141.73" enable-background="new 0 0 141.732 141.73"
	 xml:space="preserve">
<rect x="0" y="0" fill="#1D1D1B" width="141.732" height="141.732"/>
<g>
	<g>
		<path fill="#FFFFFF" d="M57.71,57.94c-0.073-0.024-0.151-0.041-0.226-0.064v35.137h4.007V53.385
			C60.061,54.747,58.788,56.274,57.71,57.94z"/>
		<path fill="#FFFFFF" d="M65.499,50.277v42.734h4.007V48.248C68.103,48.804,66.764,49.487,65.499,50.277z"/>
		<path fill="#FFFFFF" d="M123.205,79.495c-0.751-6.346-5.706-11.555-11.992-12.697c-2.819-0.514-5.498-0.172-7.891,0.745
			c-1.891-11.921-12.186-21.044-24.639-21.044c-1.774,0-3.501,0.193-5.17,0.546v45.967h40.976c2.282,0,4.458-1.039,5.838-2.858
			C122.527,87.254,123.681,83.517,123.205,79.495z"/>
		<path fill="#FFFFFF" d="M51.86,57.007c-0.813,0-1.607,0.064-2.391,0.164v35.841h4.007V57.081
			C52.943,57.035,52.406,57.007,51.86,57.007z"/>
		<path fill="#FFFFFF" d="M34.258,69.022c-0.262-0.013-0.52-0.039-0.784-0.039c-0.011,0-0.022,0.001-0.034,0.001v24.027h4.007V63.71
			C36.115,65.284,35.024,67.071,34.258,69.022z"/>
		<path fill="#FFFFFF" d="M25.424,71.219v21.793h4.008V69.527C28.005,69.906,26.662,70.479,25.424,71.219z"/>
		<path fill="#FFFFFF" d="M17.76,84.698c0,0.592,0.032,1.174,0.097,1.747c0.268,2.371,1.639,4.369,3.562,5.521v-17.34
			C19.135,77.353,17.76,80.864,17.76,84.698z"/>
		<path fill="#FFFFFF" d="M41.456,60.145v32.867h4.007V58.133C44.04,58.646,42.694,59.323,41.456,60.145z"/>
	</g>
</g>
</svg>
