<?xml version="1.0" encoding="utf-8"?>
<!-- Generator: Adobe Illustrator 16.0.0, SVG Export Plug-In . SVG Version: 6.00 Build 0)  -->
<!DOCTYPE svg PUBLIC "-//W3C//DTD SVG 1.1//EN" "http://www.w3.org/Graphics/SVG/1.1/DTD/svg11.dtd">
<svg version="1.1" id="Ebene_1" xmlns="http://www.w3.org/2000/svg" xmlns:xlink="http://www.w3.org/1999/xlink" x="0px" y="0px"
	 width="2855.247px" height="1881.704px" viewBox="-915.178 -0.001 2855.247 1881.704"
	 enable-background="new -915.178 -0.001 2855.247 1881.704" xml:space="preserve">
<path d="M1920.543,1.563l-19.016,19.016v0.148l-32.537-19.164h-19.527l-13.436,14.262V1.563h-78.734l-14.057,14.262V1.563h-19.529
	l-37.326,37.382l-36.096-37.381h-19.527L1616.7,15.826V1.563h-19.525l-2.305,2.377h-0.072l-34.951,35.005L1523.75,1.563h-19.527
	l-14.527,16.639C1485.711,6.188,1471.821,0,1443.688,0c-22.514,0-35.906,3.964-42.402,11.703c-0.869,0.751-1.672,1.538-2.377,2.378
	c-0.869,0.75-1.672,1.537-2.377,2.377c-0.869,0.75-1.674,1.537-2.377,2.376c-0.869,0.751-1.674,1.538-2.377,2.378
	c-0.869,0.75-1.672,1.537-2.377,2.376c-0.869,0.751-1.672,1.537-2.377,2.377c-0.869,0.751-1.672,1.537-2.377,2.377
	c-0.869,0.751-1.672,1.537-2.377,2.377c-0.871,0.751-1.672,1.537-2.377,2.377c-0.871,0.752-1.672,1.537-2.377,2.378
	c-0.871,0.751-1.672,1.536-2.377,2.377c-0.17,0.146-0.324,0.301-0.486,0.449l-12.459-8.01l25.031-26.351l3.818-2.377h-27.807
	l-35.15,23.324V1.563h-19.525l-33.277,35.181h-23.977V1.563h-19.527l-33.275,35.181h-23.979V1.563H1155l-15.232,16.639V1.563
	h-19.525l-25.787,26.147l14.461-26.146h-21.713l-25.855,26.147L1048.93,1.565h-23.59l-24.898,26.147h-0.139L987.067,1.563H965.04
	l-1880.218,1880.14H109.713L1940.069,51.55V1.563H1920.543z"/>
<g>
	<path d="M1328.088,25.131l0.41,0.284l-0.41,0.272V25.131z M1093.139,30.086l0.955-1.728"/>
	<path fill="#FFFFFF" d="M1920.542,1.563v30.364l-51.553-30.364h-19.525v49.99h19.525V21.731l51.553,29.821h19.525V1.563H1920.542z
		 M1776.821,36.711v-6.248h48.428v-7.812h-48.428v-6.248h59.207V1.563h-78.734v49.99h78.891V36.711H1776.821z M1723.708,1.563
		l-36.771,37.957l-36.648-37.957h-19.527v49.99h19.527V26.004l24.994,25.549h23.434l24.994-25.644v25.644h19.527V1.563H1723.708z
		 M1597.172,1.563l-36.77,37.957L1523.75,1.563h-19.527v49.99h19.527V26.004l24.994,25.549h23.434l24.994-25.644v25.644h19.527
		V1.563H1597.172z M1443.688,38.273c-16.09,0-26.945-2.343-26.945-11.716s10.855-11.716,26.945-11.716
		c16.092,0,26.168,2.343,26.168,11.716S1459.78,38.273,1443.688,38.273 M1443.688,53.114c34.057,0,47.258-9.063,47.258-26.557
		c0-17.497-13.201-26.558-47.258-26.558c-34.055,0-47.256,9.061-47.256,26.558C1396.434,44.054,1409.635,53.114,1443.688,53.114
		 M1395.262,51.553l-41.576-26.733l37.359-23.257h-27.809l-35.148,23.325V1.563h-19.527v49.99h19.527V25.132l38.117,26.421H1395.262
		z M1251.307,36.743V1.563h-19.525v49.99h7.717v0.031h57.332V36.743H1251.307z M1174.528,36.743V1.563h-19.529v49.99h7.719v0.031
		h57.332V36.743H1174.528z M1120.241,51.553h19.527V1.563h-19.527V51.553z M1087.202,1.563l-19.746,39.005L1048.93,1.563h-23.59
		l-18.527,39.005L987.065,1.563H965.04l27.962,49.99h26.4l17.729-34.597l17.732,34.597h26.4l27.648-49.99H1087.202z"/>
</g>
<g id="Ebene_2">
</g>
</svg>
